<svg xmlns="http://www.w3.org/2000/svg" viewBox="0 0 80.49 82.22"><defs><style>.cls-1{fill:#62bb46;}</style></defs><g id="Layer_2" data-name="Layer 2"><g id="Layer_1-2" data-name="Layer 1"><path class="cls-1" d="M41.61,82.12c-5.66,0-11.34.32-17-.16-2.29-.19-5.3-1.52-6.5-3.31-5.64-8.41-10.82-17.12-16-25.8-2-3.39-1-5.33,3.07-5.42,7.65-.17,15.33-.34,23,.16,2.17.14,4.8,2.18,6.15,4.1,3.91,5.56,7.27,11.5,10.86,17.28.7,1.13,1.25,2.69,2.29,3.19,1.55.75,3.47.74,5.23,1,.2-1.77,1.16-4,.45-5.25-3.08-5.68-6.79-11-10-16.65-1.3-2.3-1.88-5-2.79-7.54,2.53-.49,5-1.3,7.57-1.39a134.34,134.34,0,0,1,18,.12,12,12,0,0,1,7.19,4,51.06,51.06,0,0,1,7,11.41,6.73,6.73,0,0,1-.67,5.93A212.71,212.71,0,0,1,64.66,79.46,10.36,10.36,0,0,1,58.58,82C52.94,82.35,47.27,82.12,41.61,82.12Z"/><path class="cls-1" d="M39.66.13c5.5,0,11-.38,16.48.17C58.59.55,61.73,2.07,63.05,4c5.59,8.26,10.66,16.86,15.81,25.4C81.05,33.06,80,35,75.58,35c-7.33.12-14.7.41-22-.17-2.5-.2-5.53-2.27-7.06-4.38-4-5.52-7.26-11.53-10.84-17.34-.61-1-1.11-2.38-2-2.76a25.5,25.5,0,0,0-5.36-1.11c-.16,1.77-1.08,4-.37,5.23,3.63,6.53,7.73,12.8,11.57,19.22,2.75,4.62,1.82,6.33-3.42,6.37-7,.06-14,.14-21-.06-1.86-.05-4.46-.52-5.39-1.78A133.58,133.58,0,0,1,.16,23.1c-.56-1,.45-3.56,1.5-4.72C6.59,13,11.64,7.62,17,2.6A10.44,10.44,0,0,1,23.17.24C28.65-.09,34.16.13,39.66.13Z"/></g></g></svg>